# WaveFront *.obj file (generated by Cinema 4D)

mtllib ./PlanetBefall.mtl

v 0.600000 -0.300000 1.200000
v 1.200000 -0.600000 0.300000
v -1.400000 0.040000 0.300000
v 0.300000 -1.400000 0.040000
v -0.300000 -1.400000 0.040000
v -0.600000 0.300000 1.200000
v -0.600000 0.300000 -1.200000
v -0.300000 1.200000 0.600000
v 0.600000 0.300000 -1.200000
v -1.400000 -0.400000 -0.300000
v 1.400000 -0.040000 -0.300000
v -1.400000 0.400000 -0.300000
v 0.300000 -1.400000 -0.400000
v 0.300000 -1.200000 -0.600000
v -1.400000 0.040000 -0.300000
v -0.300000 1.200000 -0.600000
v -0.300000 1.400000 -0.040000
v 0.300000 1.400000 -0.400000
v 1.400000 0.040000 -0.300000
v 0.300000 1.200000 -0.600000
v 1.400000 0.400000 -0.300000
v 0.300000 1.400000 -0.040000
v 0.300000 1.200000 0.600000
v 0.300000 -1.200000 0.600000
v -0.400000 -0.300000 -1.400000
v -0.600000 -0.300000 -1.200000
v -0.400000 0.300000 1.400000
v -0.200000 0.900000 0.900000
v -0.200000 -0.900000 0.900000
v -0.200000 -0.900000 -0.900000
v 0.200000 -0.900000 0.900000
v 0.900000 0.200000 -0.900000
v -0.900000 0.200000 -0.900000
v -0.900000 0.200000 0.900000
v 0.900000 0.900000 -0.200000
v 0.900000 0.900000 0.200000
v -0.900000 0.900000 -0.200000
v -0.900000 0.900000 0.200000
v -0.900000 -0.900000 -0.200000
v 0.400000 -0.300000 1.400000
v -0.900000 -0.900000 0.200000
v 1.400000 -0.040000 0.300000
v -1.400000 -0.040000 0.300000
v 1.400000 -0.400000 -0.300000
v 1.400000 -0.400000 0.300000
v -1.200000 -0.600000 -0.300000
v -1.400000 -0.400000 0.300000
v 1.400000 0.400000 0.300000
v -1.200000 0.600000 -0.300000
v 1.200000 0.600000 0.300000
v 0.300000 -1.400000 -0.040000
v -0.300000 1.400000 -0.400000
v -0.300000 -1.200000 -0.600000
v -0.300000 -1.400000 -0.400000
v -0.300000 -1.400000 0.400000
v 0.300000 1.400000 0.040000
v 0.300000 -1.400000 0.400000
v -0.400000 0.300000 -1.400000
v -0.600000 -0.300000 1.200000
v -0.400000 -0.300000 1.400000
v 0.400000 0.300000 1.400000
v -0.300000 -1.200000 0.600000
v 0.600000 0.300000 1.200000
v 0.300000 1.400000 0.400000
v 0.600000 -0.300000 -1.200000
v -0.300000 1.400000 0.400000
v 0.400000 0.300000 -1.400000
v 0.400000 -0.300000 -1.400000
v -0.200000 0.900000 -0.900000
v -0.300000 1.400000 0.040000
v 0.200000 0.900000 -0.900000
v 0.200000 -0.900000 -0.900000
v 0.200000 0.900000 0.900000
v -0.300000 -1.400000 -0.040000
v 0.900000 -0.200000 -0.900000
v -0.900000 -0.200000 0.900000
v 0.900000 -0.200000 0.900000
v -0.900000 -0.200000 -0.900000
v 0.900000 0.200000 0.900000
v 0.900000 -0.900000 -0.200000
v 0.900000 -0.900000 0.200000
v 1.200000 -0.600000 -0.300000
v -1.200000 -0.600000 0.300000
v -1.400000 -0.040000 -0.300000
v 1.400000 0.040000 0.300000
v -1.400000 0.400000 0.300000
v 1.200000 0.600000 -0.300000
v -1.200000 0.600000 0.300000
# 88 vertices

vn 0.000000 1.000000 0.000000
vn 0.000000 -1.000000 0.000000
vn -1.000000 0.000000 0.000000
vn -1.000000 0.000000 0.000000
vn 1.000000 0.000000 0.000000
vn 1.000000 0.000000 0.000000
vn 0.000000 0.000000 -1.000000
vn 0.000000 0.000000 -1.000000
vn 0.000000 0.000000 1.000000
vn 0.707107 0.000000 -0.707107
vn 0.707107 0.000000 0.707107
vn -0.707107 0.000000 0.707107
vn -0.707107 0.000000 -0.707107
vn 0.000000 0.707107 0.707107
vn 0.000000 -0.707107 0.707107
vn 0.000000 -0.707107 0.707107
vn 0.000000 -1.000000 0.000000
vn 0.000000 -0.707107 -0.707107
vn 0.000000 0.707107 -0.707107
vn 0.707107 0.707107 0.000000
vn 0.707107 0.707107 0.000000
vn -0.707107 0.707107 0.000000
vn 1.000000 0.000000 0.000000
vn -0.707107 -0.707107 0.000000
vn 0.707107 -0.707107 0.000000
vn 0.000000 1.000000 0.000000
vn 0.707107 0.000000 -0.707107
vn 0.000000 1.000000 0.000000
vn 0.000000 -1.000000 0.000000
vn 0.000000 0.000000 -1.000000
vn 0.000000 0.000000 1.000000
# 31 normals

vt 0.021070 0.925158 0.000000
vt 0.103844 0.995459 0.000000
vt 0.434940 0.995459 0.000000
vt 0.021400 0.924726 0.000000
vt 0.104174 0.995027 0.000000
vt 0.435270 0.995027 0.000000
vt 0.737698 0.032874 0.000000
vt 0.608164 0.032874 0.000000
vt 0.536201 0.100578 0.000000
vt 0.608138 0.032917 0.000000
vt 0.536175 0.100621 0.000000
vt 0.737672 0.032917 0.000000
vt 0.608137 0.980689 0.000000
vt 0.737670 0.980689 0.000000
vt 0.536173 0.912986 0.000000
vt 0.536415 0.913163 0.000000
vt 0.608378 0.980867 0.000000
vt 0.737911 0.980867 0.000000
vt 0.738136 0.032790 0.000000
vt 0.608602 0.032790 0.000000
vt 0.536640 0.100493 0.000000
vt 0.608607 0.032742 0.000000
vt 0.536644 0.100447 0.000000
vt 0.738141 0.032742 0.000000
vt 0.608626 0.980595 0.000000
vt 0.738159 0.980595 0.000000
vt 0.536662 0.912892 0.000000
vt 0.536695 0.912892 0.000000
vt 0.608657 0.980595 0.000000
vt 0.738191 0.980595 0.000000
vt 0.747818 0.342941 0.000000
vt 0.747834 0.400432 0.000000
vt 0.910526 0.400407 0.000000
vt 0.747763 0.400994 0.000000
vt 0.747763 0.929448 0.000000
vt 0.910657 0.929448 0.000000
vt 0.747800 0.342991 0.000000
vt 0.747816 0.400482 0.000000
vt 0.910507 0.400457 0.000000
vt 0.744786 0.008901 0.000000
vt 0.999359 0.008901 0.000000
vt 0.999359 0.192582 0.000000
vt 0.747801 0.342996 0.000000
vt 0.747796 0.400486 0.000000
vt 0.910488 0.400495 0.000000
vt 0.747791 0.400828 0.000000
vt 0.747791 0.929283 0.000000
vt 0.910685 0.929283 0.000000
vt 0.747777 0.342967 0.000000
vt 0.747793 0.400457 0.000000
vt 0.910485 0.400433 0.000000
vt 0.999377 0.008873 0.000000
vt 0.744805 0.008873 0.000000
vt 0.744805 0.192554 0.000000
vt 0.748353 0.995055 0.000000
vt 0.910579 0.994884 0.000000
vt 0.910485 0.929388 0.000000
vt 0.910505 0.400724 0.000000
vt 0.747612 0.400724 0.000000
vt 0.747612 0.929178 0.000000
vt 0.748355 0.995109 0.000000
vt 0.910581 0.994937 0.000000
vt 0.910487 0.929441 0.000000
vt 0.999373 0.008867 0.000000
vt 0.999373 0.192569 0.000000
vt 0.895234 0.192569 0.000000
vt 0.895245 0.008827 0.000000
vt 0.895245 0.192582 0.000000
vt 0.999367 0.192582 0.000000
vt 0.986516 0.991170 0.000000
vt 0.986516 0.816256 0.000000
vt 0.949034 0.816256 0.000000
vt 0.744678 0.008903 0.000000
vt 0.744678 0.192834 0.000000
vt 0.858760 0.192834 0.000000
vt 0.910519 0.929408 0.000000
vt 0.748293 0.929579 0.000000
vt 0.748387 0.995075 0.000000
vt 0.747652 0.929183 0.000000
vt 0.910546 0.929183 0.000000
vt 0.910546 0.400729 0.000000
vt 0.910432 0.929447 0.000000
vt 0.748206 0.929618 0.000000
vt 0.748300 0.995114 0.000000
vt 0.858513 0.008885 0.000000
vt 0.858514 0.193123 0.000000
vt 0.744791 0.193123 0.000000
vt 0.949024 0.816251 0.000000
vt 0.949024 0.991166 0.000000
vt 0.986505 0.991166 0.000000
vt 0.748423 0.995089 0.000000
vt 0.910650 0.994918 0.000000
vt 0.910555 0.929421 0.000000
vt 0.747819 0.929339 0.000000
vt 0.910712 0.929339 0.000000
vt 0.910712 0.400885 0.000000
vt 0.748425 0.995144 0.000000
vt 0.910651 0.994973 0.000000
vt 0.910557 0.929477 0.000000
vt 0.744891 0.008862 0.000000
vt 0.744891 0.192719 0.000000
vt 0.858662 0.192719 0.000000
vt 0.858816 0.192308 0.000000
vt 0.858817 0.008956 0.000000
vt 0.745101 0.008956 0.000000
vt 0.949055 0.991162 0.000000
vt 0.986537 0.991162 0.000000
vt 0.986537 0.816248 0.000000
vt 0.999356 0.192573 0.000000
vt 0.999356 0.008840 0.000000
vt 0.895296 0.008840 0.000000
vt 0.910506 0.929466 0.000000
vt 0.748280 0.929637 0.000000
vt 0.748374 0.995133 0.000000
vt 0.910640 0.401000 0.000000
vt 0.747746 0.401000 0.000000
vt 0.747746 0.929454 0.000000
vt 0.910534 0.929453 0.000000
vt 0.748307 0.929625 0.000000
vt 0.748402 0.995121 0.000000
vt 0.895316 0.008946 0.000000
vt 0.895316 0.192572 0.000000
vt 0.999299 0.192572 0.000000
vt 0.949062 0.991168 0.000000
vt 0.986543 0.991168 0.000000
vt 0.986543 0.816254 0.000000
vt 0.754291 0.336904 0.000000
vt 0.895221 0.336904 0.000000
vt 0.895221 0.202767 0.000000
vt 0.895245 0.336877 0.000000
vt 0.895245 0.202739 0.000000
vt 0.754316 0.202739 0.000000
vt 0.916447 0.204106 0.000000
vt 0.916447 0.366818 0.000000
vt 0.954851 0.366818 0.000000
vt 0.954999 0.366413 0.000000
vt 0.954999 0.203931 0.000000
vt 0.916821 0.203931 0.000000
vt 0.955190 0.366964 0.000000
vt 0.955190 0.204253 0.000000
vt 0.916786 0.204253 0.000000
vt 0.916778 0.203899 0.000000
vt 0.916778 0.366381 0.000000
vt 0.954957 0.366381 0.000000
vt 0.754298 0.336907 0.000000
vt 0.895227 0.336907 0.000000
vt 0.895227 0.202769 0.000000
vt 0.754256 0.202775 0.000000
vt 0.754256 0.336913 0.000000
vt 0.895186 0.336913 0.000000
vt 0.916810 0.204033 0.000000
vt 0.916810 0.366516 0.000000
vt 0.954989 0.366516 0.000000
vt 0.916699 0.203918 0.000000
vt 0.916699 0.366400 0.000000
vt 0.954878 0.366400 0.000000
vt 0.916448 0.203822 0.000000
vt 0.916448 0.366305 0.000000
vt 0.954626 0.366305 0.000000
vt 0.916432 0.203597 0.000000
vt 0.916432 0.366079 0.000000
vt 0.954611 0.366079 0.000000
vt 0.754258 0.336902 0.000000
vt 0.895188 0.336902 0.000000
vt 0.895188 0.202764 0.000000
vt 0.895226 0.336890 0.000000
vt 0.895226 0.202752 0.000000
vt 0.754296 0.202752 0.000000
vt 0.916427 0.203665 0.000000
vt 0.916427 0.366376 0.000000
vt 0.954831 0.366376 0.000000
vt 0.916447 0.204175 0.000000
vt 0.916447 0.366887 0.000000
vt 0.954851 0.366887 0.000000
vt 0.954733 0.366789 0.000000
vt 0.954733 0.204077 0.000000
vt 0.916329 0.204077 0.000000
vt 0.916455 0.204099 0.000000
vt 0.916455 0.366811 0.000000
vt 0.954859 0.366811 0.000000
vt 0.910510 0.342916 0.000000
vt 0.910657 0.400994 0.000000
vt 0.910492 0.342966 0.000000
vt 0.744787 0.192582 0.000000
vt 0.910492 0.343004 0.000000
vt 0.910685 0.400828 0.000000
vt 0.910469 0.342942 0.000000
vt 0.999377 0.192554 0.000000
vt 0.748259 0.929558 0.000000
vt 0.910505 0.929178 0.000000
vt 0.748261 0.929612 0.000000
vt 0.895234 0.008867 0.000000
vt 0.999367 0.008827 0.000000
vt 0.949034 0.991170 0.000000
vt 0.858760 0.008903 0.000000
vt 0.910614 0.994904 0.000000
vt 0.747652 0.400729 0.000000
vt 0.910527 0.994943 0.000000
vt 0.744791 0.008885 0.000000
vt 0.986505 0.816251 0.000000
vt 0.748329 0.929592 0.000000
vt 0.747819 0.400885 0.000000
vt 0.748330 0.929648 0.000000
vt 0.858662 0.008862 0.000000
vt 0.745101 0.192308 0.000000
vt 0.949055 0.816248 0.000000
vt 0.895295 0.192573 0.000000
vt 0.910600 0.994962 0.000000
vt 0.910640 0.929454 0.000000
vt 0.910628 0.994950 0.000000
vt 0.999299 0.008946 0.000000
vt 0.949062 0.816254 0.000000
vt 0.754291 0.202767 0.000000
vt 0.754316 0.336877 0.000000
vt 0.954851 0.204106 0.000000
vt 0.916821 0.366413 0.000000
vt 0.916786 0.366964 0.000000
vt 0.954957 0.203899 0.000000
vt 0.754298 0.202769 0.000000
vt 0.895186 0.202775 0.000000
vt 0.954989 0.204033 0.000000
vt 0.954878 0.203918 0.000000
vt 0.954626 0.203822 0.000000
vt 0.954611 0.203597 0.000000
vt 0.754258 0.202764 0.000000
vt 0.754296 0.336890 0.000000
vt 0.954831 0.203665 0.000000
vt 0.954851 0.204175 0.000000
vt 0.916329 0.366789 0.000000
vt 0.954859 0.204099 0.000000
vt 0.517714 0.925158 0.000000
vt 0.517714 0.081544 0.000000
vt 0.021070 0.081544 0.000000
vt 0.434940 0.011243 0.000000
vt 0.103844 0.011243 0.000000
vt 0.518044 0.924726 0.000000
vt 0.518044 0.081113 0.000000
vt 0.021400 0.081113 0.000000
vt 0.435270 0.010811 0.000000
vt 0.104174 0.010811 0.000000
vt 0.737698 0.980727 0.000000
vt 0.536201 0.913023 0.000000
vt 0.608164 0.980727 0.000000
vt 0.536175 0.913066 0.000000
vt 0.737672 0.980770 0.000000
vt 0.608138 0.980770 0.000000
vt 0.737670 0.032837 0.000000
vt 0.536173 0.100541 0.000000
vt 0.608137 0.032837 0.000000
vt 0.536415 0.100718 0.000000
vt 0.737911 0.033014 0.000000
vt 0.608378 0.033014 0.000000
vt 0.738136 0.980642 0.000000
vt 0.536640 0.912939 0.000000
vt 0.608602 0.980642 0.000000
vt 0.536644 0.912892 0.000000
vt 0.738141 0.980595 0.000000
vt 0.608607 0.980595 0.000000
vt 0.738159 0.032742 0.000000
vt 0.536662 0.100447 0.000000
vt 0.608626 0.032742 0.000000
vt 0.536695 0.100447 0.000000
vt 0.738191 0.032742 0.000000
vt 0.608657 0.032742 0.000000
vt 0.536201 0.913024 0.000000
vt 0.536644 0.100446 0.000000
# 266 texture coordinates

g PlanetBefall
usemtl ??
f 67/3/1 58/2/1 7/1/1
f 40/6/2 60/5/2 59/4/2
f 8/9/3 66/8/4 70/7/3
f 4/12/6 24/11/6 57/10/5
f 14/15/6 51/14/6 13/13/5
f 17/18/3 52/17/3 16/16/3
f 87/21/7 21/20/8 19/19/7
f 3/24/9 88/23/9 86/22/9
f 83/27/9 43/26/9 47/25/9
f 11/30/7 44/29/7 82/28/7
f 9/33/10 65/32/10 68/31/10
f 63/36/6 1/35/6 65/34/6
f 61/39/11 40/38/11 1/37/11
f 27/42/9 60/41/9 40/40/9
f 6/45/12 59/44/12 60/43/12
f 7/48/3 26/47/3 59/46/3
f 58/51/13 25/50/13 26/49/13
f 67/54/7 68/53/7 25/52/7
f 66/57/14 8/56/14 23/55/14
f 8/60/9 62/59/9 24/58/9
f 62/63/15 55/62/16 57/61/15
f 70/66/1 66/65/1 64/64/1
f 55/69/2 5/68/17 4/67/2
f 4/72/7 5/71/7 70/70/7
f 74/75/2 54/74/17 13/73/2
f 54/78/18 53/77/18 14/76/18
f 53/81/7 16/80/7 20/79/7
f 16/84/19 52/83/19 18/82/19
f 52/87/1 17/86/1 22/85/1
f 22/90/9 17/89/9 74/88/9
f 21/93/20 87/92/21 50/91/20
f 87/96/1 49/95/1 88/94/1
f 49/99/22 12/98/22 86/97/22
f 19/102/6 21/101/23 48/100/6
f 12/105/3 15/104/3 3/103/3
f 85/108/2 3/107/2 15/106/2
f 84/111/3 10/110/3 47/109/3
f 10/114/24 46/113/24 83/112/24
f 46/117/2 82/116/2 2/115/2
f 82/120/25 44/119/25 45/118/25
f 44/123/6 11/122/23 42/121/6
f 11/126/1 84/125/1 43/124/1
f 81/129/9 36/128/9 38/127/9
f 80/132/7 39/131/7 37/130/7
f 38/135/3 37/134/3 39/133/3
f 36/138/1 35/137/26 37/136/1
f 81/141/6 80/140/6 35/139/6
f 41/144/2 39/143/17 80/142/2
f 79/147/1 32/146/26 33/145/1
f 77/150/2 76/149/2 78/148/2
f 33/153/3 78/152/3 76/151/3
f 32/156/7 75/155/7 78/154/7
f 79/159/6 77/158/6 75/157/6
f 34/162/9 76/161/9 77/160/9
f 72/165/6 71/164/23 73/163/6
f 30/168/3 29/167/3 28/166/3
f 73/171/9 28/170/9 29/169/9
f 71/174/1 69/173/1 28/172/1
f 72/177/7 30/176/7 69/175/7
f 31/180/2 29/179/2 30/178/2
f 67/181/27 9/33/10 68/31/10
f 9/182/5 63/36/6 65/34/6
f 63/183/11 61/39/11 1/37/11
f 61/184/9 27/42/9 40/40/9
f 27/185/12 6/45/12 60/43/12
f 6/186/3 7/48/3 59/46/3
f 7/187/13 58/51/13 26/49/13
f 58/188/7 67/54/7 25/52/7
f 64/189/14 66/57/14 23/55/14
f 23/190/9 8/60/9 24/58/9
f 24/191/15 62/63/15 57/61/15
f 56/192/28 70/66/1 64/64/1
f 57/193/29 55/69/2 4/67/2
f 56/194/30 4/72/7 70/70/7
f 51/195/29 74/75/2 13/73/2
f 13/196/18 54/78/18 14/76/18
f 14/197/7 53/81/7 20/79/7
f 20/198/19 16/84/19 18/82/19
f 18/199/28 52/87/1 22/85/1
f 51/200/9 22/90/9 74/88/9
f 48/201/20 21/93/20 50/91/20
f 50/202/1 87/96/1 88/94/1
f 88/203/22 49/99/22 86/97/22
f 85/204/6 19/102/6 48/100/6
f 86/205/3 12/105/3 3/103/3
f 19/206/2 85/108/2 15/106/2
f 43/207/3 84/111/3 47/109/3
f 47/208/24 10/114/24 83/112/24
f 83/209/2 46/117/2 2/115/2
f 2/210/25 82/120/25 45/118/25
f 45/211/6 44/123/6 42/121/6
f 42/212/1 11/126/1 43/124/1
f 41/213/9 81/129/9 38/127/9
f 35/214/30 80/132/7 37/130/7
f 41/215/3 38/135/3 39/133/3
f 38/216/1 36/138/1 37/136/1
f 36/217/6 81/141/6 35/139/6
f 81/218/29 41/144/2 80/142/2
f 34/219/1 79/147/1 33/145/1
f 75/220/2 77/150/2 78/148/2
f 34/221/3 33/153/3 76/151/3
f 33/222/7 32/156/7 78/154/7
f 32/223/5 79/159/6 75/157/6
f 79/224/9 34/162/9 77/160/9
f 31/225/6 72/165/6 73/163/6
f 69/226/3 30/168/3 28/166/3
f 31/227/9 73/171/9 29/169/9
f 73/228/1 71/174/1 28/172/1
f 71/229/30 72/177/7 69/175/7
f 72/230/2 31/180/2 30/178/2
f 6/233/1 63/232/1 9/231/1
f 27/235/1 61/234/1 63/232/1
f 26/238/2 65/237/2 1/236/2
f 25/240/2 68/239/2 65/237/2
f 8/9/3 70/7/3 5/241/3
f 5/241/3 55/243/3 62/242/3
f 56/245/6 23/244/6 24/11/6
f 56/245/6 64/246/6 23/244/6
f 20/248/6 22/247/6 51/14/6
f 20/248/6 18/249/23 22/247/6
f 17/18/3 16/16/3 53/250/3
f 53/250/3 54/252/3 74/251/3
f 87/21/7 19/19/7 15/253/7
f 15/253/7 12/255/7 49/254/7
f 85/257/9 50/256/9 88/23/9
f 85/257/9 48/258/9 50/256/9
f 2/260/9 42/259/9 43/26/9
f 2/260/9 45/261/31 42/259/9
f 11/30/7 82/28/7 46/262/7
f 46/262/7 10/264/7 84/263/7
f 7/1/1 6/233/1 9/231/1
f 6/233/1 27/235/1 63/232/1
f 59/4/2 26/238/2 1/236/2
f 26/238/2 25/240/2 65/237/2
f 62/265/3 8/9/3 5/241/3
f 4/12/6 56/245/6 24/11/6
f 14/15/6 20/248/6 51/14/6
f 74/251/3 17/18/3 53/250/3
f 49/254/7 87/21/7 15/253/7
f 3/24/9 85/257/9 88/266/9
f 83/27/9 2/260/9 43/26/9
f 84/263/7 11/30/7 46/262/7
f 9/231/1 67/3/1 7/1/1
f 1/236/2 40/6/2 59/4/2

